<svg width="39" height="40" fill="none" xmlns="http://www.w3.org/2000/svg">
  <rect y=".734" width="38.33" height="38.33" rx="4.259" fill="#EB5E6C" />
  <path
    d="M13.432 8.856a5.025 5.025 0 012.912.662c.123.068.52.305.624.397.124.114.987.785 1.156 1.004.084.104.908 1.09.908 1.09s.783-.826.922-.967c.238-.233.461-.384.635-.511a14.744 14.744 0 011.602-1.045c.406-.233 1.106-.448 1.478-.498.104-.013.381-.05.505-.068 1.414-.201 3.244.365 4.28.958 1.146.653 1.934 1.615 2.544 2.82.134.27.442.986.501 1.164.323.954.397 2.158.303 3.35-.144 1.852-.947 3.755-1.805 4.905-.174.228-.57.895-1.052 1.47-1.602 1.898-3.972 4.262-6.358 5.759-.67.42-3.233 1.811-3.233 1.811s-2.673-1.478-3.1-1.738c-2.703-1.662-5.688-4.016-7.354-6.677-.58-.926-1.25-1.861-1.632-2.993-.179-.52-.337-.968-.461-1.547-.293-1.365-.204-2.971.188-4.244.174-.566.432-1.173.68-1.657.897-1.73 2.564-2.866 4.756-3.308.347-.069.679-.119 1.001-.137z"
    fill="#fff" />
</svg>