<svg width="271" height="45" fill="none" xmlns="http://www.w3.org/2000/svg"><path d="M2.73 22.133c0-5.87 4.399-9.959 8.589-11.846l.419.524c-1.571 1.678-2.724 3.355-2.724 6.814 0 4.089 1.048 6.814 2.829 8.701.628-.629.943-1.677.943-2.516v-5.765l7.437-5.347.419.524c-.629.944-1.048 1.783-1.048 3.145v3.564c0 2.831-4.4 5.557-7.228 6.815 1.781 1.677 4.19 2.306 6.914 2.306 1.047 0 2.095 0 2.933-.21V12.174c-2.305-.105-4.4-.734-6.39-1.258-2.304-.629-5.342-1.468-7.332-1.468-2.933 0-6.495.944-6.495 5.242 0 .42 0 .839.105 1.258l-.733.21C.739 14.9.425 13.537.425 12.278c0-5.346 3.771-9.958 10.056-9.958 2.514 0 5.656.839 7.752 1.468 2.304.629 4.608 1.257 6.913 1.257 1.152 0 1.78-.628 1.78-1.677 0-1.048-.523-1.572-1.466-1.782l.105-.734c2.723.524 5.656 2.097 5.656 5.451 0 3.984-2.933 5.976-7.856 5.976h-.419v16.458c3.038-.629 5.133-2.096 6.704-4.612l.629.314c-1.676 5.661-6.18 11.217-13.723 11.217-7.646 0-13.827-4.403-13.827-13.523ZM35.621 40.06c4.819-.42 9.637-1.678 9.637-6.815V17.311l-2.095-2.097-2.41 2.202V29.47l1.991 1.782-4.504 4.089h-.524l-4.504-3.879 1.257-1.258V5.779c0-1.782-1.572-2.725-2.619-3.04v-.524c.419-.21 1.047-.42 1.99-.42 1.571 0 3.038.944 3.457 1.888h.105a4.758 4.758 0 0 1 3.77-1.887c.42 0 .944 0 1.572.21v.733c-.838.105-1.99 1.153-1.99 3.46v9.959l5.866-5.556h.523c.42.419 3.143 2.83 3.562 3.144.21.105.524.21.733.21.524 0 .838-.105 1.257-.42v1.05c-.419.418-1.047 1.152-1.047 2.2V30.31c0 6.185-6.81 9.959-16.027 10.588v-.839ZM61.913 23.391l4.295-2.935c-1.467-1.678-3.038-3.46-4.295-4.822v7.757Zm-6.39-7.129c2.724-1.362 6.6-3.669 9.323-5.556h.524c1.78 1.783 4.19 4.613 6.39 6.5v.629l-9.847 6.5v3.773c1.048.63 3.876 1.992 5.552 2.621l4.085-3.983.524.629-7.961 7.967h-.629c-2.618-1.153-6.18-2.621-8.484-3.879.419-.944.628-2.935.628-5.451v-9.75h-.105ZM86.32 22.028c0-5.87 4.4-9.959 8.59-11.846l.418.524c-1.57 1.678-2.723 3.355-2.723 6.814 0 4.089 1.047 6.814 2.828 8.701.629-.629.943-1.677.943-2.515V17.94l7.437-5.347.419.524c-.628.944-1.047 1.783-1.047 3.145v3.565c0 2.83-4.4 5.556-7.228 6.814 1.78 1.677 4.19 2.306 6.913 2.306 1.048 0 1.991 0 2.933-.21V12.07c-2.304-.105-4.399-.734-6.39-1.258-2.304-.629-5.342-1.467-7.332-1.467-2.933 0-6.494.943-6.494 5.241 0 .42 0 .839.104 1.258l-.733.21a10.71 10.71 0 0 1-.733-3.984c0-5.346 3.77-9.959 10.056-9.959 2.619 0 5.656.839 7.856 1.468 2.305.629 4.609 1.258 6.914 1.258 1.152 0 1.78-.63 1.78-1.677 0-1.049-.523-1.573-1.466-1.783l.105-.733c2.723.524 5.656 2.096 5.656 5.45 0 3.984-2.933 5.976-7.856 5.976h-.419v16.459c3.038-.63 5.133-2.097 6.704-4.613l.628.315c-1.676 5.66-6.18 11.217-13.722 11.217-7.856.104-14.141-4.194-14.141-13.419ZM123.192 23.391l4.295-2.935c-1.467-1.678-3.038-3.46-4.295-4.822v7.757Zm-6.39-7.233c2.724-1.363 6.599-3.67 9.323-5.556h.524c1.78 1.782 4.19 4.612 6.389 6.5v.628l-9.846 6.5v3.774c1.047.629 3.876 1.991 5.552 2.62l3.98-3.983.524.629-8.066 7.862h-.628c-2.619-1.153-6.181-2.62-8.485-3.879.419-.943.628-2.935.628-5.45v-9.645h.105ZM142.361 4.94v24.007c0 .944.943 1.782 1.886 1.992l1.571-1.468.524.63-5.238 5.24h-.419c-1.99-.314-4.714-1.991-4.714-5.136V7.981l-1.257-1.363-1.571 1.572-.733-.524 5.866-5.975h.524l3.561 3.25ZM154.826 23.391l4.295-2.935a261.261 261.261 0 0 0-4.295-4.822v7.757Zm-6.389-7.233c2.723-1.363 6.599-3.67 9.322-5.556h.524c1.781 1.782 4.19 4.612 6.39 6.5v.628l-9.847 6.5v3.774c1.048.629 3.876 1.991 5.552 2.62l4.085-3.983.524.629-8.066 7.862h-.628c-2.619-1.153-6.18-2.62-8.485-3.879.419-.943.629-2.935.629-5.45v-9.645ZM177.871 29.68V17.417l-4.504-1.992v13.942l2.828 1.887 1.676-1.572Zm-10.894 1.888V16.262l8.066-5.66h.629c1.885.838 6.704 2.935 7.227 3.25.21.104.524.209.838.209.419 0 .943-.21 1.572-.42v1.049c-.419.42-1.048 1.258-1.048 1.992v12.684c0 2.936.629 4.718 1.781 5.976v.629c-1.676 1.782-5.761 6.185-7.647 8.386h-.419c-1.676-.943-4.609-1.677-7.018-1.677-1.781 0-3.771.42-5.342 1.677l-.524-.42c1.362-3.249 4.399-6.499 8.17-6.499 2.305 0 5.238.944 7.961 2.411-1.78-1.991-3.352-5.87-3.456-8.805l-4.505 4.507h-.523l-5.762-3.983ZM197.041 17.31v11.637c0 .944.942 1.782 1.885 1.992l1.571-1.468.524.63-5.237 5.24h-.315c-1.99-.314-4.713-1.991-4.713-5.136V16.891l-1.257-1.362-1.676 1.572-.629-.524 5.866-5.975h.524l3.561 3.459v1.887l4.505-5.346h.523c.943.943 2.305 2.306 3.667 3.25v.104l-3.876 4.613h-.105c-1.047-.944-2.409-2.202-3.247-2.935l-1.571 1.677ZM216.734 21.714v-3.67l-6.39-3.354c-.524.42-2.2 1.468-2.828 1.782 1.571 2.097 5.551 4.298 9.218 5.242Zm-4.4-.944v9.016l2.619 1.572 1.676-1.572v-7.024c-3.876-1.048-8.38-3.564-10.161-5.87v-.63c3.352-1.886 5.761-3.669 7.752-5.45h.523s6.704 3.144 6.914 3.249c.314.21.628.315 1.047.315.419 0 .838-.105 1.362-.42v1.153c-.524.315-1.047.944-1.047 1.992v11.741c0 1.258 1.047 1.992 1.885 2.202l1.571-1.468.524.629-5.237 5.242h-.419c-2.095-.525-4.086-2.412-4.609-4.613l-4.714 4.508h-.419l-5.657-3.67v-7.128c1.362-.943 4.19-2.935 5.657-3.983l.733.21ZM241.35 30.1V17.206l-2.095-2.097-2.409 2.202v11.846c1.571.419 3.666.733 4.504.943Zm-4.504-13.942 5.866-5.556h.523c.419.419 3.143 2.83 3.562 3.144.209.105.523.21.733.21.524 0 .838-.105 1.257-.314v1.048c-.419.42-1.047 1.153-1.047 2.201v14.467c-2.619.63-4.714 1.992-6.914 4.508h-.209l-3.876-.839v2.516l2.095 1.887-4.504 4.089h-.315l-4.923-3.88 1.257-1.362V33.56c-.524-.105-1.362-.21-1.99-.315v-.838c1.257-.63 2.095-2.097 2.095-3.25V16.89l-1.257-1.362-1.571 1.572-.629-.524 5.866-5.975h.524l3.561 3.459v2.097h-.104ZM253.606 40.06c4.818-.42 9.637-1.678 9.637-6.815v-16.04l-2.095-2.096-2.41 2.202v12.055l1.991 1.782-4.609 4.089h-.524l-4.504-3.879 1.257-1.258V5.57c0-1.782-1.572-2.726-2.619-3.04v-.42c.419-.21 1.152-.42 2.095-.42 1.571 0 3.038.944 3.457 1.888h.104c.838-1.363 2.305-1.887 3.667-1.992.419 0 .942 0 1.571.21v.734c-.733.21-1.886 1.258-1.99 3.564v9.959l5.866-5.556h.523c.419.42 3.143 2.83 3.562 3.145.209.104.524.21.733.21.524 0 .733-.106 1.257-.42v1.048c-.419.42-1.048 1.153-1.048 2.202v13.523c0 6.185-6.808 9.959-16.026 10.588v-.734h.105Z" fill="#fff"/></svg>