<svg width="85" height="76" viewBox="0 0 85 76" fill="none" xmlns="http://www.w3.org/2000/svg">
<path d="M0.7461 57.8069C-0.114423 58.4994 -0.250623 59.7584 0.44189 60.6189L11.727 74.642C12.4195 75.5025 13.6785 75.6387 14.5391 74.9462C15.3996 74.2537 15.5358 72.9947 14.8433 72.1342L4.81202 59.6692L17.2769 49.638C18.1375 48.9455 18.2737 47.6865 17.5812 46.826C16.8886 45.9655 15.6297 45.8293 14.7691 46.5218L0.7461 57.8069ZM84.3792 2.81155C84.4088 1.70738 83.5378 0.78821 82.4336 0.758528C81.3295 0.728846 80.4103 1.59989 80.3806 2.70406L84.3792 2.81155ZM1.7849 61.3534C7.57341 61.9796 27.7555 66.5764 46.5498 61.4497C56.0397 58.861 65.2988 53.781 72.2947 44.4462C79.2814 35.1239 83.8702 21.7462 84.3792 2.81155L80.3806 2.70406C79.8874 21.053 75.456 33.5584 69.0939 42.0473C62.7412 50.5238 54.3232 55.1831 45.4971 57.5907C27.6594 62.4565 8.65374 58.0732 2.21511 57.3766L1.7849 61.3534Z" fill="#F8F8F8"/>
</svg>
